{"title":"The.Switch.2010.CAM.XviD-p2p [Russian Audio]","uid":5778776,"size":734957568,"categoryP":"video","categoryS":"movies","magnet":"?xt=urn:btih:6dab6bea00aca0b78725ff0e789d773369fbdf7e&amp;dn=The.Switch.2010.CAM.XviD-p2p+%5BRussian+Audio%5D&amp;tr=udp%3A%2F%2Ftracker.openbittorrent.com%3A80&amp;tr=udp%3A%2F%2Fopen.demonii.com%3A1337&amp;tr=udp%3A%2F%2Ftracker.coppersurfer.tk%3A6969&amp;tr=udp%3A%2F%2Fexodus.desync.com%3A6969","seeders":0,"leechers":0,"uploader":"johnnyrep","files":-1,"time":1282341604,"description":"RUSSIAN AUDIO\n &lt;a href=&quot;\nhttp://www.imdb.com/title/tt0889573/&quot; rel=&quot;nofollow&quot; target=&quot;_NEW&quot;&gt;\nhttp://www.imdb.com/title/tt0889573/&lt;/a&gt;\n &lt;a href=&quot;\nhttp://shareimage.ro/images/ei7dxus71ip67oups4.png&quot; rel=&quot;nofollow&quot; target=&quot;_NEW&quot;&gt;\nhttp://shareimage.ro/images/ei7dxus71ip67oups4.png&lt;/a&gt;\n\nFormat : AVI\nFormat/Info : Audio Video Interleave\nFile size : 701 MiB\nDuration : 1h 36mn\nOverall bit rate : 1 015 Kbps\nWriting application : VirtualDubMod 1.5.10.2 (build 2540/release)\n\nVideo\nFormat : MPEG-4 Visual\nFormat profile : Streaming Video@L1\nFormat settings, BVOP : Yes\nFormat settings, QPel : No\nFormat settings, GMC : No warppoints\nFormat settings, Matrix : Custom\nCodec ID : XVID\nCodec ID/Hint : XviD\nDuration : 1h 36mn\nBit rate : 878 Kbps\nWidth : 720 pixels\nHeight : 272 pixels\nDisplay aspect ratio : 2.647\nFrame rate : 25.000 fps\nResolution : 24 bits\nColorimetry : 4:2:0\nScan type : Progressive\nBits/(Pixel*Frame) : 0.179\nStream size : 606 MiB (86%)\nWriting library : XviD 1.2.1 (UTC 2008-12-04)\n\nAudio : Russian\nFormat : AC-3\nFormat/Info : Audio Coding 3\nCodec ID : 2000\nDuration : 1h 36mn\nBit rate mode : Constant\nBit rate : 128 Kbps\nChannel(s) : 2 channels\nChannel positions : L R\nSampling rate : 48.0 KHz\nStream size : 88.3 MiB (13%)\nAlignment : Aligned on interleaves\nInterleave, duration : 40 ms (1.00 video frame)\nInterleave, preload duration : 512 ms\n\nThanks to pitic","torrent":{"xt":"urn:btih:6dab6bea00aca0b78725ff0e789d773369fbdf7e","amp;dn":"The.Switch.2010.CAM.XviD-p2p+%5BRussian+Audio%5D","amp;tr":["udp%3A%2F%2Ftracker.openbittorrent.com%3A80","udp%3A%2F%2Fopen.demonii.com%3A1337","udp%3A%2F%2Ftracker.coppersurfer.tk%3A6969","udp%3A%2F%2Fexodus.desync.com%3A6969"],"infoHash":"6dab6bea00aca0b78725ff0e789d773369fbdf7e","infoHashBuffer":{"type":"Buffer","data":[109,171,107,234,0,172,160,183,135,37,255,14,120,157,119,51,105,251,223,126]},"announce":[],"urlList":[]}}